<svg width="32" height="32" viewBox="0 0 32 32" fill="none" xmlns="http://www.w3.org/2000/svg">
  <defs>
    <linearGradient id="bgGrad" x1="0" y1="0" x2="32" y2="32">
      <stop offset="0%" stop-color="#A855F7"/>
      <stop offset="100%" stop-color="#06B6D4"/>
    </linearGradient>
  </defs>
  <rect width="32" height="32" rx="6" fill="url(#bgGrad)"/>
  <g transform="translate(3, 4) scale(0.113)">
    <path d="M76.0483 93.6439C76.0483 88.3784 80.3043 84.1098 85.5543 84.1098H98.229C103.479 84.1098 107.735 88.3784 107.735 93.6439V106.356C107.735 111.622 103.479 115.89 98.229 115.89H85.5543C80.3043 115.89 76.0483 111.622 76.0483 106.356V93.6439Z" fill="white"/>
    <path d="M0 93.6439C0 88.3784 4.256 84.1098 9.50604 84.1098H22.1807C27.4308 84.1098 31.6868 88.3784 31.6868 93.6439V106.356C31.6868 111.622 27.4308 115.89 22.1807 115.89H9.50604C4.256 115.89 0 111.622 0 106.356V93.6439Z" fill="white"/>
    <path d="M38.0241 61.8634C38.0241 56.5979 42.2801 52.3293 47.5302 52.3293H60.2049C65.4549 52.3293 69.7109 56.5979 69.7109 61.8634V74.5756C69.7109 79.8412 65.4549 84.1098 60.2049 84.1098H47.5302C42.2801 84.1098 38.0241 79.8412 38.0241 74.5756V61.8634Z" fill="white"/>
    <path d="M38.0241 125.424C38.0241 120.159 42.2801 115.89 47.5302 115.89H60.2049C65.4549 115.89 69.7109 120.159 69.7109 125.424V138.137C69.7109 143.402 65.4549 147.671 60.2049 147.671H47.5302C42.2801 147.671 38.0241 143.402 38.0241 138.137V125.424Z" fill="white"/>
    <path d="M76.0483 15.9176C76.0485 3.0997 90.4023 -4.44329 100.91 2.8528L222.004 86.9352C231.104 93.254 231.104 106.746 222.004 113.065L100.91 197.147C90.4022 204.443 76.0484 196.9 76.0483 184.082V160.383C76.0483 153.362 81.7229 147.671 88.723 147.671H95.0603C102.06 147.671 107.735 141.979 107.735 134.959V128.602C107.735 121.582 113.41 115.89 120.41 115.89H126.747C133.747 115.89 139.422 110.199 139.422 103.178V96.8219C139.422 89.8012 133.747 84.1097 126.747 84.1097H120.41C113.41 84.1097 107.735 78.4183 107.735 71.3975V65.0414C107.735 58.0207 102.06 52.3292 95.0603 52.3292H88.723C81.7229 52.3292 76.0483 46.6378 76.0483 39.617V15.9176Z" fill="white"/>
    <path d="M107.735 71.3975C107.735 71.3975 107.735 84.1098 95.0603 84.1098V96.822H107.735C107.735 96.822 107.735 84.1097 120.41 84.1097C120.727 84.1097 120.41 71.3976 120.41 71.3976L107.735 71.3975Z" fill="white"/>
  </g>
</svg>
